<?xml version="1.0" encoding="utf-8"?>
<!-- Generator: Adobe Illustrator 16.2.1, SVG Export Plug-In . SVG Version: 6.00 Build 0)  -->
<!DOCTYPE svg PUBLIC "-//W3C//DTD SVG 1.1//EN" "http://www.w3.org/Graphics/SVG/1.1/DTD/svg11.dtd">
<svg version="1.1" id="Layer_1" xmlns="http://www.w3.org/2000/svg" xmlns:xlink="http://www.w3.org/1999/xlink" x="0px" y="0px"
	 width="290.312px" height="35.25px" viewBox="0 0 290.312 35.25" enable-background="new 0 0 290.312 35.25" xml:space="preserve">
<g>
	<path fill="#818285" d="M139.979,0.702v33.445h-4.925v-24.6l-5.832,24.6h-2.891l-5.783-24.6v16.168h-4.925V0.702h7.571
		l4.631,20.998l4.68-20.998H139.979z"/>
	<path fill="#818285" d="M161.597,11.335v12.178c0,1.879-0.147,3.43-0.441,4.655c-0.294,1.225-0.784,2.312-1.47,3.259
		c-1.552,2.14-3.953,3.21-7.204,3.21c-3.267,0-5.677-1.07-7.228-3.21c-0.817-1.143-1.348-2.417-1.593-3.822
		c-0.213-1.257-0.318-2.622-0.318-4.092V11.335c0-1.878,0.147-3.43,0.441-4.655s0.784-2.311,1.47-3.259
		c1.568-2.14,3.977-3.21,7.228-3.21c3.25,0,5.652,1.07,7.204,3.21c0.833,1.144,1.364,2.418,1.593,3.822
		C161.491,8.501,161.597,9.865,161.597,11.335z M148.537,11.434v11.981c0,1.601,0.065,2.695,0.196,3.283
		c0.473,2.058,1.723,3.087,3.749,3.087c1.552,0,2.638-0.604,3.259-1.813c0.343-0.653,0.539-1.372,0.588-2.156
		c0.049-0.653,0.073-1.454,0.073-2.401V11.434c0-1.617-0.065-2.72-0.196-3.308c-0.458-2.041-1.699-3.062-3.725-3.062
		c-1.568,0-2.663,0.605-3.283,1.813c-0.343,0.654-0.539,1.364-0.588,2.132C148.562,9.678,148.537,10.486,148.537,11.434z"/>
	<path fill="#818285" d="M177.476,19.421h-7.327v14.726h-5.194V0.702h5.194v13.941h7.327V0.702h5.194v33.445h-5.194V19.421z"/>
	<path fill="#818285" d="M198.753,0.702h5.194v22.665c0,2.695-0.237,4.697-0.71,6.003c-1.274,3.512-3.986,5.268-8.135,5.268
		c-3.087,0-5.391-1.005-6.91-3.014c-0.882-1.16-1.43-2.458-1.642-3.896c-0.196-1.29-0.294-2.744-0.294-4.361V0.702h5.194v23.498
		c0,1.895,0.245,3.259,0.735,4.092c0.588,0.997,1.56,1.495,2.916,1.495c1.355,0,2.328-0.498,2.916-1.495
		c0.49-0.816,0.735-2.181,0.735-4.092V0.702z"/>
	<path fill="#818285" d="M226.106,0.702v33.445h-4.655l-8.968-22.248v22.248h-4.925V0.702h5.195l8.429,20.802V0.702H226.106z"/>
	<path fill="#818285" d="M229.758,34.147V0.702h8.184c6.501,0,9.728,3.487,9.678,10.462v12.521
		c0.049,6.976-3.177,10.462-9.678,10.462H229.758z M234.953,29.369h2.524c1.78-0.016,3.054-0.547,3.822-1.593
		c0.49-0.686,0.8-1.47,0.931-2.352c0.13-0.898,0.196-1.952,0.196-3.161v-9.679c0-1.47-0.082-2.61-0.245-3.417
		c-0.164-0.81-0.458-1.507-0.882-2.095c-0.768-1.045-2.042-1.576-3.822-1.593h-2.524V29.369z"/>
	<path fill="#818285" d="M256.103,20.426v13.721h-5.195V0.702h8.135c2.875,0,5.08,0.67,6.616,2.009
		c1.993,1.732,2.989,4.256,2.989,7.571c0,4.248-1.503,7.147-4.508,8.698l4.925,15.167h-5.439l-4.435-13.721H256.103z
		 M256.103,15.648h1.887c1.421,0,2.433-0.13,3.038-0.392c1.519-0.653,2.279-2.221,2.279-4.705c0-1.829-0.425-3.161-1.274-3.994
		c-0.49-0.506-1.087-0.816-1.789-0.931c-0.621-0.098-1.372-0.147-2.254-0.147h-1.887V15.648z"/>
	<path fill="#818285" d="M289.738,11.335v12.178c0,1.879-0.147,3.43-0.441,4.655s-0.784,2.312-1.47,3.259
		c-1.552,2.14-3.953,3.21-7.204,3.21c-3.267,0-5.677-1.07-7.228-3.21c-0.817-1.143-1.348-2.417-1.593-3.822
		c-0.213-1.257-0.319-2.622-0.319-4.092V11.335c0-1.878,0.147-3.43,0.441-4.655c0.294-1.225,0.784-2.311,1.47-3.259
		c1.568-2.14,3.977-3.21,7.228-3.21c3.25,0,5.651,1.07,7.204,3.21c0.833,1.144,1.364,2.418,1.593,3.822
		C289.632,8.501,289.738,9.865,289.738,11.335z M276.679,11.434v11.981c0,1.601,0.065,2.695,0.196,3.283
		c0.473,2.058,1.723,3.087,3.749,3.087c1.551,0,2.638-0.604,3.259-1.813c0.343-0.653,0.539-1.372,0.588-2.156
		c0.049-0.653,0.074-1.454,0.074-2.401V11.434c0-1.617-0.066-2.72-0.196-3.308c-0.458-2.041-1.699-3.062-3.724-3.062
		c-1.568,0-2.663,0.605-3.283,1.813c-0.343,0.654-0.539,1.364-0.588,2.132C276.703,9.678,276.679,10.486,276.679,11.434z"/>
</g>
<g>
	<path fill="#F2F2F2" d="M24.857,0.702v33.445h-4.925v-24.6l-5.832,24.6h-2.891l-5.783-24.6v24.6H0.501V0.702h7.571L12.704,21.7
		l4.68-20.998H24.857z"/>
	<path fill="#F2F2F2" d="M41.224,26.87h-7.13l-1.348,7.277h-5.072l6.419-33.445h7.106l6.763,33.445h-5.317L41.224,26.87z
		 M40.341,22.092L37.597,7.121l-2.671,14.971H40.341z"/>
	<path fill="#F2F2F2" d="M58.257,5.479v28.667h-5.194V5.479H46.57V0.702h18.156v4.778H58.257z"/>
	<path fill="#F2F2F2" d="M79.333,5.479v28.667h-5.194V5.479h-6.493V0.702h18.156v4.778H79.333z"/>
	<path fill="#F2F2F2" d="M112.266,11.335v12.178c0,1.879-0.147,3.43-0.441,4.655s-0.784,2.312-1.47,3.259
		c-1.552,2.14-3.953,3.21-7.204,3.21c-3.267,0-5.677-1.07-7.228-3.21c-0.817-1.143-1.348-2.417-1.593-3.822
		c-0.213-1.257-0.319-2.622-0.319-4.092V11.335c0-1.878,0.147-3.43,0.441-4.655s0.784-2.311,1.47-3.259
		c1.568-2.14,3.977-3.21,7.228-3.21c3.25,0,5.651,1.07,7.204,3.21c0.833,1.144,1.364,2.418,1.593,3.822
		C112.16,8.501,112.266,9.865,112.266,11.335z M99.207,11.434v11.981c0,1.601,0.065,2.695,0.196,3.283
		c0.473,2.058,1.723,3.087,3.749,3.087c1.551,0,2.638-0.604,3.259-1.813c0.343-0.653,0.539-1.372,0.588-2.156
		c0.049-0.653,0.074-1.454,0.074-2.401V11.434c0-1.617-0.066-2.72-0.196-3.308c-0.458-2.041-1.699-3.062-3.724-3.062
		c-1.568,0-2.663,0.605-3.283,1.813C99.525,7.53,99.329,8.24,99.28,9.008C99.231,9.678,99.207,10.486,99.207,11.434z"/>
	<path fill="#F2F2F2" d="M120.476,28.806v5.341h-4.851v-5.341H120.476z"/>
</g>
</svg>
